<svg height="1024" width="1024" viewBox="0 0 41 41" role="img"><path fill="#ffffff" d="M0,0 h41v41H0z" shape-rendering="crispEdges"></path><path fill="#0f172a" d="M4 4h7v1H4zM12 4h3v1H12zM18 4h1v1H18zM20 4h3v1H20zM24 4h2v1H24zM27 4h2v1H27zM30,4 h7v1H30zM4 5h1v1H4zM10 5h1v1H10zM12 5h1v1H12zM14 5h1v1H14zM21 5h1v1H21zM23 5h1v1H23zM25 5h2v1H25zM28 5h1v1H28zM30 5h1v1H30zM36,5 h1v1H36zM4 6h1v1H4zM6 6h3v1H6zM10 6h1v1H10zM12 6h1v1H12zM15 6h1v1H15zM19 6h2v1H19zM22 6h1v1H22zM25 6h4v1H25zM30 6h1v1H30zM32 6h3v1H32zM36,6 h1v1H36zM4 7h1v1H4zM6 7h3v1H6zM10 7h1v1H10zM14 7h1v1H14zM18 7h2v1H18zM22 7h2v1H22zM26 7h3v1H26zM30 7h1v1H30zM32 7h3v1H32zM36,7 h1v1H36zM4 8h1v1H4zM6 8h3v1H6zM10 8h1v1H10zM13 8h1v1H13zM15 8h4v1H15zM20 8h1v1H20zM22 8h1v1H22zM26 8h1v1H26zM30 8h1v1H30zM32 8h3v1H32zM36,8 h1v1H36zM4 9h1v1H4zM10 9h1v1H10zM12 9h1v1H12zM14 9h1v1H14zM19 9h1v1H19zM24 9h2v1H24zM27 9h2v1H27zM30 9h1v1H30zM36,9 h1v1H36zM4 10h7v1H4zM12 10h1v1H12zM14 10h1v1H14zM16 10h1v1H16zM18 10h1v1H18zM20 10h1v1H20zM22 10h1v1H22zM24 10h1v1H24zM26 10h1v1H26zM28 10h1v1H28zM30,10 h7v1H30zM12 11h3v1H12zM17 11h2v1H17zM20 11h1v1H20zM22 11h6v1H22zM6 12h3v1H6zM10 12h1v1H10zM12 12h2v1H12zM15 12h2v1H15zM18 12h3v1H18zM23 12h1v1H23zM27 12h1v1H27zM29 12h3v1H29zM34,12 h3v1H34zM4 13h4v1H4zM9 13h1v1H9zM13 13h1v1H13zM16 13h5v1H16zM22 13h2v1H22zM25 13h6v1H25zM33 13h1v1H33zM35,13 h2v1H35zM4 14h1v1H4zM6 14h1v1H6zM8 14h1v1H8zM10 14h1v1H10zM12 14h1v1H12zM15 14h1v1H15zM18 14h1v1H18zM20 14h6v1H20zM31 14h1v1H31zM33 14h1v1H33zM35 14h1v1H35zM4 15h1v1H4zM6 15h2v1H6zM15 15h3v1H15zM20 15h1v1H20zM23 15h4v1H23zM29 15h2v1H29zM33 15h3v1H33zM4 16h1v1H4zM6 16h5v1H6zM14 16h1v1H14zM16 16h2v1H16zM20 16h4v1H20zM25 16h1v1H25zM28 16h2v1H28zM31 16h1v1H31zM4 17h3v1H4zM9 17h1v1H9zM11 17h3v1H11zM15 17h4v1H15zM21 17h1v1H21zM23 17h1v1H23zM26 17h2v1H26zM29 17h3v1H29zM34 17h1v1H34zM36,17 h1v1H36zM6 18h2v1H6zM10 18h1v1H10zM14 18h2v1H14zM17 18h1v1H17zM19 18h1v1H19zM22 18h1v1H22zM26 18h1v1H26zM28 18h1v1H28zM30 18h1v1H30zM33 18h1v1H33zM35 18h1v1H35zM5 19h1v1H5zM9 19h1v1H9zM12 19h6v1H12zM19 19h1v1H19zM21 19h1v1H21zM23 19h4v1H23zM28 19h2v1H28zM32 19h4v1H32zM4 20h3v1H4zM9 20h7v1H9zM17 20h2v1H17zM20 20h3v1H20zM24 20h1v1H24zM27 20h1v1H27zM29 20h1v1H29zM31 20h2v1H31zM35,20 h2v1H35zM4 21h1v1H4zM6 21h1v1H6zM8 21h1v1H8zM11 21h4v1H11zM16 21h7v1H16zM24 21h2v1H24zM27 21h2v1H27zM30 21h1v1H30zM36,21 h1v1H36zM6 22h2v1H6zM10 22h2v1H10zM13 22h1v1H13zM17 22h4v1H17zM23 22h1v1H23zM29 22h4v1H29zM34 22h2v1H34zM4 23h1v1H4zM9 23h1v1H9zM12 23h6v1H12zM24 23h2v1H24zM27 23h2v1H27zM30 23h1v1H30zM33 23h2v1H33zM36,23 h1v1H36zM7 24h2v1H7zM10 24h1v1H10zM12 24h2v1H12zM16 24h2v1H16zM19 24h2v1H19zM22 24h1v1H22zM24 24h1v1H24zM26 24h1v1H26zM29 24h2v1H29zM32 24h2v1H32zM35,24 h2v1H35zM4 25h2v1H4zM12 25h2v1H12zM16 25h1v1H16zM18 25h1v1H18zM20 25h4v1H20zM25 25h1v1H25zM28 25h1v1H28zM34 25h1v1H34zM36,25 h1v1H36zM4 26h1v1H4zM8 26h1v1H8zM10 26h1v1H10zM12 26h3v1H12zM16 26h1v1H16zM19 26h1v1H19zM21 26h4v1H21zM31 26h2v1H31zM35 26h1v1H35zM4 27h1v1H4zM8 27h2v1H8zM11 27h3v1H11zM17 27h2v1H17zM21 27h5v1H21zM28 27h1v1H28zM32 27h1v1H32zM34 27h2v1H34zM4 28h1v1H4zM6 28h2v1H6zM9 28h4v1H9zM15 28h2v1H15zM18 28h2v1H18zM21 28h1v1H21zM23 28h1v1H23zM28 28h5v1H28zM35 28h1v1H35zM12 29h3v1H12zM20 29h1v1H20zM23 29h2v1H23zM28 29h1v1H28zM32,29 h5v1H32zM4 30h7v1H4zM13 30h3v1H13zM21 30h1v1H21zM23 30h2v1H23zM26 30h3v1H26zM30 30h1v1H30zM32 30h1v1H32zM35 30h1v1H35zM4 31h1v1H4zM10 31h1v1H10zM13 31h1v1H13zM15 31h5v1H15zM27 31h2v1H27zM32,31 h5v1H32zM4 32h1v1H4zM6 32h3v1H6zM10 32h1v1H10zM12 32h2v1H12zM15 32h3v1H15zM19 32h1v1H19zM21 32h1v1H21zM24 32h3v1H24zM28 32h5v1H28zM35,32 h2v1H35zM4 33h1v1H4zM6 33h3v1H6zM10 33h1v1H10zM12 33h1v1H12zM14 33h1v1H14zM16 33h8v1H16zM27 33h1v1H27zM29 33h1v1H29zM32 33h2v1H32zM35 33h1v1H35zM4 34h1v1H4zM6 34h3v1H6zM10 34h1v1H10zM12 34h6v1H12zM20 34h1v1H20zM22 34h2v1H22zM28 34h3v1H28zM33 34h1v1H33zM4 35h1v1H4zM10 35h1v1H10zM13 35h1v1H13zM19 35h2v1H19zM31 35h1v1H31zM33 35h2v1H33zM4 36h7v1H4zM13 36h1v1H13zM15 36h2v1H15zM19 36h2v1H19zM22 36h7v1H22zM35 36h1v1H35z" shape-rendering="crispEdges"></path></svg>
